# xmcd
# 
# Track frame offsets:
#     150
#     11653
#     52920
#     73908
#     93851
#     118963
#     139806
#     152947
#     166335
#     187980
#     199142
#     213538
#     229783
#     248159
#     258022
#     272659
# 
# Disc length: 3943
# 
# Revision: 5
# Processed by: cddbd v1.5.2PL0 Copyright (c) Steve Scherf et al.
# Submitted via: fre:ac v1.0.17
# 
DISCID=e30f6510
DTITLE=Various Artist - The best of blues
DYEAR=2002
DGENRE=Blues
TTITLE0=John Lee Hooker - Boom boom
TTITLE1=Albert King - I got the blues
TTITLE2=Stevie Ray Vaughan - The sky is crying
TTITLE3=Albert Collins - Hooked on you
TTITLE4=The Yardbirds - Smokestack lightnin'
TTITLE5=Buddy Guy - Feels like rain
TTITLE6=Elmore James - Dust my broom
TTITLE7=Bessie Smith - Baby, won't you please come home?
TTITLE8=Bluesbreakers - Fascinating Lover
TTITLE9=Johnny Winter - Gangster of love
TTITLE10=Dinah Shore - Blues in the night
TTITLE11=Robben Ford - My time after awhile
TTITLE12=Chet Atkins - Mark Knopfler - Poor boy blues
TTITLE13=Chris Whitley - Dirt floor
TTITLE14=Keb’ Mo’ - More than one way home
TTITLE15=Marla Glen - Believer
EXTD=YEAR: 2002 ID3G:   0
EXTT0=
EXTT1=
EXTT2=
EXTT3=
EXTT4=
EXTT5=
EXTT6=
EXTT7=
EXTT8=
EXTT9=
EXTT10=
EXTT11=
EXTT12=
EXTT13=
EXTT14=
EXTT15=
PLAYORDER=
